# MagicaVoxel @ Ephtracy

# group
o 

# material
mtllib Blue Artilery Cannon 3.mtl
usemtl palette

# normals
vn -1 0 0
vn 1 0 0
vn 0 0 1
vn 0 0 -1
vn 0 -1 0
vn 0 1 0

# texcoords
vt 0.634766 0.5
vt 0.642578 0.5
vt 0.974609 0.5
vt 0.994141 0.5

# verts
v -0.2 0.1 0.3
v -0.2 0.1 0.2
v -0.2 0.1 -2.98023e-08
v -0.2 0.1 -0.1
v -0.2 0.3 0.2
v -0.2 0.3 -2.98023e-08
v -0.2 0.3 -0.1
v -0.2 0.3 -0.2
v -0.2 0.3 -1.6
v -0.2 0.4 0.3
v -0.2 0.4 0.2
v -0.2 0.4 -0.2
v -0.2 0.4 -1.6
v -0.2 0.5 0.2
v -0.2 0.5 -0.2
v -0.1 0.4 -0.2
v -0.1 0.4 -0.3
v -0.1 0.4 -1.6
v -0.1 0.5 0.1
v -0.1 0.5 -0.1
v -0.1 0.5 -0.2
v -0.1 0.5 -0.3
v -0.1 0.5 -1.6
v -0.1 0.6 0.1
v -0.1 0.6 -0.1
v 0.1 0.3 0.1
v 0.1 0.3 -2.98023e-08
v 0.1 0.3 -0.1
v 0.1 0.3 -0.2
v 0.1 0.3 -1.6
v 0.1 0.4 0.1
v 0.1 0.4 -0.2
v 0.1 0.4 -0.3
v 0.1 0.4 -1.6
v 0.1 0.5 -0.3
v 0.1 0.5 -1.6
v 0 0.3 0.1
v 0 0.3 -2.98023e-08
v 0 0.3 -0.1
v 0 0.3 -0.2
v 0 0.3 -1.6
v 0 0.4 0.1
v 0 0.4 -0.2
v 0 0.4 -0.3
v 0 0.4 -1.6
v 0 0.5 -0.3
v 0 0.5 -1.6
v 0.2 0.4 -0.2
v 0.2 0.4 -0.3
v 0.2 0.4 -1.6
v 0.2 0.5 0.1
v 0.2 0.5 -0.1
v 0.2 0.5 -0.2
v 0.2 0.5 -0.3
v 0.2 0.5 -1.6
v 0.2 0.6 0.1
v 0.2 0.6 -0.1
v 0.3 0.1 0.3
v 0.3 0.1 0.2
v 0.3 0.1 -2.98023e-08
v 0.3 0.1 -0.1
v 0.3 0.3 0.2
v 0.3 0.3 -2.98023e-08
v 0.3 0.3 -0.1
v 0.3 0.3 -0.2
v 0.3 0.3 -1.6
v 0.3 0.4 0.3
v 0.3 0.4 0.2
v 0.3 0.4 -0.2
v 0.3 0.4 -1.6
v 0.3 0.5 0.2
v 0.3 0.5 -0.2
v -0.2 0.1 0.3
v -0.2 0.4 0.3
v -0.1 0.2 0.3
v -0.1 0.4 0.3
v 0.2 0.2 0.3
v 0.2 0.4 0.3
v 0.3 0.1 0.3
v 0.3 0.4 0.3
v -0.2 0.4 0.2
v -0.2 0.5 0.2
v -0.1 0.4 0.2
v 0.2 0.4 0.2
v 0.3 0.4 0.2
v 0.3 0.5 0.2
v -0.1 0.5 0.1
v -0.1 0.6 0.1
v 0.2 0.5 0.1
v 0.2 0.6 0.1
v -0.2 0.1 -2.98023e-08
v -0.2 0.3 -2.98023e-08
v -0.1 0.2 -2.98023e-08
v -0.1 0.3 -2.98023e-08
v 0 0.3 -2.98023e-08
v 0.1 0.3 -2.98023e-08
v 0.2 0.2 -2.98023e-08
v 0.2 0.3 -2.98023e-08
v 0.3 0.1 -2.98023e-08
v 0.3 0.3 -2.98023e-08
v -0.2 0.1 0.2
v -0.2 0.3 0.2
v -0.1 0.2 0.2
v -0.1 0.3 0.2
v 0.2 0.2 0.2
v 0.2 0.3 0.2
v 0.3 0.1 0.2
v 0.3 0.3 0.2
v 0 0.3 0.1
v 0 0.4 0.1
v 0.1 0.3 0.1
v 0.1 0.4 0.1
v -0.2 0.1 -0.1
v -0.2 0.3 -0.1
v -0.1 0.2 -0.1
v -0.1 0.3 -0.1
v -0.1 0.5 -0.1
v -0.1 0.6 -0.1
v 0 0.3 -0.1
v 0 0.5 -0.1
v 0 0.6 -0.1
v 0.1 0.3 -0.1
v 0.1 0.5 -0.1
v 0.1 0.6 -0.1
v 0.2 0.2 -0.1
v 0.2 0.3 -0.1
v 0.2 0.5 -0.1
v 0.2 0.6 -0.1
v 0.3 0.1 -0.1
v 0.3 0.3 -0.1
v -0.2 0.4 -0.2
v -0.2 0.5 -0.2
v -0.1 0.4 -0.2
v -0.1 0.5 -0.2
v 0.2 0.4 -0.2
v 0.2 0.5 -0.2
v 0.3 0.4 -0.2
v 0.3 0.5 -0.2
v 0 0.4 -0.3
v 0 0.5 -0.3
v 0.1 0.4 -0.3
v 0.1 0.5 -0.3
v -0.2 0.3 -1.6
v -0.2 0.4 -1.6
v -0.1 0.3 -1.6
v -0.1 0.4 -1.6
v -0.1 0.5 -1.6
v 0 0.3 -1.6
v 0 0.4 -1.6
v 0 0.5 -1.6
v 0.1 0.3 -1.6
v 0.1 0.4 -1.6
v 0.1 0.5 -1.6
v 0.2 0.3 -1.6
v 0.2 0.4 -1.6
v 0.2 0.5 -1.6
v 0.3 0.3 -1.6
v 0.3 0.4 -1.6
v -0.2 0.1 0.3
v 0.3 0.1 0.3
v -0.2 0.1 0.2
v 0.3 0.1 0.2
v -0.2 0.1 -2.98023e-08
v 0.3 0.1 -2.98023e-08
v -0.2 0.1 -0.1
v 0.3 0.1 -0.1
v -0.2 0.3 0.2
v -0.1 0.3 0.2
v 0.2 0.3 0.2
v 0.3 0.3 0.2
v 0 0.3 0.1
v 0.1 0.3 0.1
v -0.2 0.3 -2.98023e-08
v -0.1 0.3 -2.98023e-08
v 0 0.3 -2.98023e-08
v 0.1 0.3 -2.98023e-08
v 0.2 0.3 -2.98023e-08
v 0.3 0.3 -2.98023e-08
v -0.2 0.3 -0.1
v -0.1 0.3 -0.1
v 0 0.3 -0.1
v 0.1 0.3 -0.1
v 0.2 0.3 -0.1
v 0.3 0.3 -0.1
v -0.2 0.3 -0.2
v -0.1 0.3 -0.2
v 0 0.3 -0.2
v 0.1 0.3 -0.2
v 0.2 0.3 -0.2
v 0.3 0.3 -0.2
v -0.2 0.3 -1.6
v -0.1 0.3 -1.6
v 0 0.3 -1.6
v 0.1 0.3 -1.6
v 0.2 0.3 -1.6
v 0.3 0.3 -1.6
v 0 0.4 0.1
v 0.1 0.4 0.1
v 0 0.4 -0.2
v 0.1 0.4 -0.2
v 0 0.4 -0.3
v 0.1 0.4 -0.3
v 0 0.3 -2.98023e-08
v 0.1 0.3 -2.98023e-08
v 0 0.3 -0.1
v 0.1 0.3 -0.1
v -0.2 0.4 0.3
v -0.1 0.4 0.3
v 0.2 0.4 0.3
v 0.3 0.4 0.3
v -0.2 0.4 0.2
v -0.1 0.4 0.2
v 0.2 0.4 0.2
v 0.3 0.4 0.2
v -0.2 0.4 -0.2
v -0.1 0.4 -0.2
v 0.2 0.4 -0.2
v 0.3 0.4 -0.2
v -0.1 0.4 -0.3
v 0.2 0.4 -0.3
v -0.2 0.4 -1.6
v -0.1 0.4 -1.6
v 0.2 0.4 -1.6
v 0.3 0.4 -1.6
v -0.2 0.5 0.2
v 0.3 0.5 0.2
v -0.1 0.5 0.1
v 0.2 0.5 0.1
v -0.1 0.5 -0.1
v 0 0.5 -0.1
v 0.1 0.5 -0.1
v 0.2 0.5 -0.1
v -0.2 0.5 -0.2
v -0.1 0.5 -0.2
v 0.2 0.5 -0.2
v 0.3 0.5 -0.2
v -0.1 0.5 -0.3
v 0 0.5 -0.3
v 0.1 0.5 -0.3
v 0.2 0.5 -0.3
v -0.1 0.5 -1.6
v 0 0.5 -1.6
v 0.1 0.5 -1.6
v 0.2 0.5 -1.6
v -0.1 0.6 0.1
v 0.2 0.6 0.1
v 0 0.6 -2.98023e-08
v 0.1 0.6 -2.98023e-08
v -0.1 0.6 -0.1
v 0 0.6 -0.1
v 0.1 0.6 -0.1
v 0.2 0.6 -0.1

# faces
f 5/2/1 2/2/1 1/2/1
f 6/2/1 4/2/1 3/2/1
f 7/2/1 4/2/1 6/2/1
f 10/2/1 5/2/1 1/2/1
f 11/1/1 6/1/1 5/1/1
f 11/2/1 5/2/1 10/2/1
f 11/1/1 7/1/1 6/1/1
f 11/1/1 8/1/1 7/1/1
f 12/3/1 9/3/1 8/3/1
f 12/1/1 8/1/1 11/1/1
f 13/3/1 9/3/1 12/3/1
f 14/2/1 12/2/1 11/2/1
f 15/2/1 12/2/1 14/2/1
f 21/2/1 17/2/1 16/2/1
f 22/3/1 18/3/1 17/3/1
f 22/2/1 17/2/1 21/2/1
f 23/3/1 18/3/1 22/3/1
f 24/2/1 20/2/1 19/2/1
f 25/2/1 20/2/1 24/2/1
f 31/1/1 27/1/1 26/1/1
f 31/1/1 28/1/1 27/1/1
f 31/1/1 29/1/1 28/1/1
f 32/4/1 30/4/1 29/4/1
f 32/1/1 29/1/1 31/1/1
f 33/4/1 30/4/1 32/4/1
f 34/4/1 30/4/1 33/4/1
f 35/3/1 34/3/1 33/3/1
f 36/3/1 34/3/1 35/3/1
f 37/1/2 38/1/2 42/1/2
f 38/1/2 39/1/2 42/1/2
f 39/1/2 40/1/2 42/1/2
f 40/4/2 41/4/2 43/4/2
f 42/1/2 40/1/2 43/1/2
f 43/4/2 41/4/2 44/4/2
f 44/4/2 41/4/2 45/4/2
f 44/3/2 45/3/2 46/3/2
f 46/3/2 45/3/2 47/3/2
f 48/2/2 49/2/2 53/2/2
f 49/3/2 50/3/2 54/3/2
f 53/2/2 49/2/2 54/2/2
f 54/3/2 50/3/2 55/3/2
f 51/2/2 52/2/2 56/2/2
f 56/2/2 52/2/2 57/2/2
f 58/2/2 59/2/2 62/2/2
f 60/2/2 61/2/2 63/2/2
f 63/2/2 61/2/2 64/2/2
f 58/2/2 62/2/2 67/2/2
f 62/1/2 63/1/2 68/1/2
f 67/2/2 62/2/2 68/2/2
f 63/1/2 64/1/2 68/1/2
f 64/1/2 65/1/2 68/1/2
f 65/3/2 66/3/2 69/3/2
f 68/1/2 65/1/2 69/1/2
f 69/3/2 66/3/2 70/3/2
f 68/2/2 69/2/2 71/2/2
f 71/2/2 69/2/2 72/2/2
f 75/2/3 74/2/3 73/2/3
f 76/2/3 74/2/3 75/2/3
f 77/2/3 75/2/3 73/2/3
f 77/1/3 76/1/3 75/1/3
f 78/1/3 76/1/3 77/1/3
f 79/2/3 77/2/3 73/2/3
f 79/2/3 78/2/3 77/2/3
f 80/2/3 78/2/3 79/2/3
f 83/2/3 82/2/3 81/2/3
f 84/2/3 82/2/3 83/2/3
f 85/2/3 82/2/3 84/2/3
f 86/2/3 82/2/3 85/2/3
f 89/2/3 88/2/3 87/2/3
f 90/2/3 88/2/3 89/2/3
f 93/2/3 92/2/3 91/2/3
f 94/2/3 92/2/3 93/2/3
f 95/1/3 94/1/3 93/1/3
f 96/1/3 95/1/3 93/1/3
f 97/2/3 93/2/3 91/2/3
f 97/1/3 96/1/3 93/1/3
f 98/1/3 96/1/3 97/1/3
f 99/2/3 97/2/3 91/2/3
f 99/2/3 98/2/3 97/2/3
f 100/2/3 98/2/3 99/2/3
f 101/2/4 102/2/4 103/2/4
f 103/2/4 102/2/4 104/2/4
f 101/2/4 103/2/4 105/2/4
f 103/1/4 104/1/4 105/1/4
f 105/1/4 104/1/4 106/1/4
f 101/2/4 105/2/4 107/2/4
f 105/2/4 106/2/4 107/2/4
f 107/2/4 106/2/4 108/2/4
f 109/1/4 110/1/4 111/1/4
f 111/1/4 110/1/4 112/1/4
f 113/2/4 114/2/4 115/2/4
f 115/2/4 114/2/4 116/2/4
f 115/1/4 116/1/4 119/1/4
f 117/2/4 118/2/4 120/2/4
f 120/2/4 118/2/4 121/2/4
f 115/1/4 119/1/4 122/1/4
f 120/1/4 121/1/4 123/1/4
f 123/1/4 121/1/4 124/1/4
f 113/2/4 115/2/4 125/2/4
f 115/1/4 122/1/4 125/1/4
f 125/1/4 122/1/4 126/1/4
f 123/2/4 124/2/4 127/2/4
f 127/2/4 124/2/4 128/2/4
f 125/2/4 126/2/4 129/2/4
f 113/2/4 125/2/4 129/2/4
f 129/2/4 126/2/4 130/2/4
f 131/2/4 132/2/4 133/2/4
f 133/2/4 132/2/4 134/2/4
f 135/2/4 136/2/4 137/2/4
f 137/2/4 136/2/4 138/2/4
f 139/2/4 140/2/4 141/2/4
f 141/2/4 140/2/4 142/2/4
f 143/3/4 144/3/4 145/3/4
f 145/3/4 144/3/4 146/3/4
f 145/4/4 146/4/4 148/4/4
f 146/3/4 147/3/4 149/3/4
f 148/4/4 146/4/4 149/4/4
f 149/3/4 147/3/4 150/3/4
f 151/4/4 152/4/4 154/4/4
f 152/3/4 153/3/4 155/3/4
f 154/4/4 152/4/4 155/4/4
f 155/3/4 153/3/4 156/3/4
f 154/3/4 155/3/4 157/3/4
f 157/3/4 155/3/4 158/3/4
f 161/2/5 160/2/5 159/2/5
f 162/2/5 160/2/5 161/2/5
f 165/2/5 164/2/5 163/2/5
f 166/2/5 164/2/5 165/2/5
f 171/1/5 168/1/5 167/1/5
f 171/1/5 170/1/5 169/1/5
f 171/1/5 169/1/5 168/1/5
f 172/1/5 170/1/5 171/1/5
f 173/1/5 171/1/5 167/1/5
f 174/1/5 171/1/5 173/1/5
f 175/1/5 171/1/5 174/1/5
f 176/1/5 170/1/5 172/1/5
f 177/1/5 170/1/5 176/1/5
f 178/1/5 170/1/5 177/1/5
f 185/1/5 180/1/5 179/1/5
f 185/1/5 181/1/5 180/1/5
f 186/1/5 181/1/5 185/1/5
f 187/1/5 181/1/5 186/1/5
f 188/1/5 184/1/5 183/1/5
f 188/1/5 183/1/5 182/1/5
f 189/1/5 184/1/5 188/1/5
f 190/1/5 184/1/5 189/1/5
f 191/3/5 186/3/5 185/3/5
f 192/4/5 187/4/5 186/4/5
f 192/3/5 186/3/5 191/3/5
f 193/4/5 187/4/5 192/4/5
f 194/4/5 189/4/5 188/4/5
f 195/3/5 190/3/5 189/3/5
f 195/4/5 189/4/5 194/4/5
f 196/3/5 190/3/5 195/3/5
f 199/1/5 198/1/5 197/1/5
f 200/1/5 198/1/5 199/1/5
f 201/2/5 200/2/5 199/2/5
f 202/2/5 200/2/5 201/2/5
f 203/1/6 204/1/6 205/1/6
f 205/1/6 204/1/6 206/1/6
f 207/2/6 208/2/6 211/2/6
f 208/1/6 209/1/6 212/1/6
f 211/2/6 208/2/6 212/2/6
f 209/2/6 210/2/6 213/2/6
f 212/1/6 209/1/6 213/1/6
f 213/2/6 210/2/6 214/2/6
f 215/3/6 216/3/6 219/3/6
f 217/3/6 218/3/6 220/3/6
f 215/3/6 219/3/6 221/3/6
f 221/3/6 219/3/6 222/3/6
f 220/3/6 218/3/6 223/3/6
f 223/3/6 218/3/6 224/3/6
f 225/2/6 226/2/6 227/2/6
f 227/2/6 226/2/6 228/2/6
f 225/2/6 227/2/6 229/2/6
f 228/2/6 226/2/6 232/2/6
f 225/2/6 229/2/6 233/2/6
f 230/1/6 231/1/6 234/1/6
f 233/2/6 229/2/6 234/2/6
f 231/1/6 232/1/6 234/1/6
f 229/1/6 230/1/6 234/1/6
f 232/2/6 226/2/6 235/2/6
f 234/1/6 232/1/6 235/1/6
f 235/2/6 226/2/6 236/2/6
f 234/2/6 235/2/6 237/2/6
f 237/2/6 235/2/6 238/2/6
f 238/2/6 235/2/6 239/2/6
f 239/2/6 235/2/6 240/2/6
f 237/3/6 238/3/6 241/3/6
f 241/3/6 238/3/6 242/3/6
f 239/3/6 240/3/6 243/3/6
f 243/3/6 240/3/6 244/3/6
f 245/2/6 246/2/6 247/2/6
f 247/2/6 246/2/6 248/2/6
f 245/2/6 247/2/6 249/2/6
f 247/1/6 248/1/6 250/1/6
f 249/2/6 247/2/6 250/2/6
f 248/2/6 246/2/6 251/2/6
f 250/1/6 248/1/6 251/1/6
f 251/2/6 246/2/6 252/2/6
